<svg xmlns="http://www.w3.org/2000/svg" width="1500" height="1500" viewBox="0 0 1500 1500" fill="none">
  <path d="M 1070 273 L 475 532 L 478 557 L 492 574 L 986 1002 L 998 1000 L 1005 992 L 1097 296 L 1094 289 Z" fill="#fefefe" fill-rule="evenodd" clip-rule="evenodd"/>
  <path d="M 454 592 L 432 600 L 427 610 L 353 1268 L 374 1278 L 387 1291 L 403 1288 L 946 1064 L 959 1049 L 959 1035 L 951 1024 Z" fill="#f4f5f6" fill-rule="evenodd" clip-rule="evenodd"/>
  <path d="M 1139 286 L 1044 995 L 1050 1003 L 1361 792 L 1366 784 L 1366 756 L 1377 734 L 1374 719 Z" fill="#dedfdf" fill-rule="evenodd" clip-rule="evenodd"/>
  <path d="M 373 579 L 144 713 L 137 721 L 134 750 L 119 776 L 120 785 L 311 1254 L 388 604 L 386 589 Z" fill="#d8d8d8" fill-rule="evenodd" clip-rule="evenodd"/>
  <path d="M 1003 1114 L 997 1105 L 984 1097 L 972 1093 L 959 1095 L 414 1320 L 410 1324 L 983 1381 L 1005 1379 L 1022 1360 L 1030 1355 L 1031 1341 L 1007 1130 Z M 448 484 L 451 488 L 458 489 L 1058 226 L 578 131 L 556 150 L 528 157 L 523 163 Z" fill="#d1d1d1" fill-rule="evenodd" clip-rule="evenodd"/>
  <path d="M 1361 839 L 1339 852 L 1075 1034 L 1073 1069 L 1066 1082 L 1048 1099 L 1043 1112 L 1070 1345 Z M 471 201 L 146 666 L 158 661 L 351 547 L 357 538 L 360 518 L 371 500 L 386 488 L 407 478 L 472 206 Z" fill="#aeaeae" fill-rule="evenodd" clip-rule="evenodd"/>
  <path d="M 500 43 L 471 73 L 468 133 L 89 671 L 53 674 L 29 693 L 17 725 L 21 752 L 40 777 L 83 798 L 283 1291 L 283 1342 L 304 1370 L 348 1381 L 399 1364 L 998 1425 L 1035 1464 L 1080 1464 L 1102 1449 L 1115 1426 L 1109 1359 L 1409 838 L 1456 821 L 1477 800 L 1485 776 L 1479 742 L 1455 717 L 1410 701 L 1172 260 L 1176 218 L 1153 181 L 1107 170 L 1067 187 L 596 93 L 554 44 Z M 1006 1118 L 1033 1351 L 1004 1381 L 991 1383 L 409 1324 L 418 1317 L 963 1092 L 974 1092 L 991 1099 L 1001 1108 Z M 1361 838 L 1362 840 L 1070 1346 L 1060 1276 L 1042 1112 L 1047 1099 L 1065 1082 L 1072 1069 L 1074 1034 L 1339 851 Z M 453 586 L 958 1027 L 961 1048 L 956 1058 L 945 1066 L 388 1293 L 370 1277 L 353 1270 L 351 1260 L 426 608 L 432 595 Z M 374 578 L 388 590 L 390 600 L 316 1241 L 311 1257 L 118 784 L 118 773 L 132 751 L 135 722 L 142 713 Z M 1139 284 L 1376 720 L 1378 736 L 1367 758 L 1368 782 L 1362 793 L 1056 1003 L 1049 1004 L 1043 999 L 1134 303 Z M 1068 267 L 1097 287 L 1098 300 L 1007 990 L 1001 1000 L 987 1004 L 491 575 L 479 562 L 473 539 L 476 525 Z M 472 199 L 473 206 L 408 478 L 404 482 L 386 489 L 372 500 L 361 518 L 358 538 L 351 548 L 158 662 L 146 667 L 157 648 L 468 202 Z M 447 484 L 522 162 L 527 156 L 557 148 L 577 130 L 585 129 L 1060 226 L 459 490 L 452 490 Z" fill="#343433" fill-rule="evenodd" clip-rule="evenodd"/>
</svg>