<svg xmlns="http://www.w3.org/2000/svg" width="350" height="464" viewBox="0 0 350 464" fill="none">
  <path d="M 122 455 L 138 456 L 139 457 L 165 457 L 166 456 L 180 455 L 172 455 L 163 457 L 139 457 L 132 455 Z M 42 423 L 51 429 L 47 424 Z M 43 376 L 18 400 L 18 404 L 25 410 L 20 405 L 20 399 Z M 320 175 L 322 182 L 326 187 Z M 289 132 L 287 132 L 262 154 L 92 324 L 89 329 L 52 367 L 63 357 L 63 355 L 68 350 L 71 349 L 74 344 L 79 342 L 82 336 L 90 330 L 96 322 L 98 322 L 116 304 L 117 301 L 122 298 L 125 293 L 130 290 L 143 275 L 153 266 L 155 266 L 156 262 L 159 261 L 158 260 L 162 258 L 162 256 L 183 237 L 185 232 L 186 234 L 198 220 L 199 221 L 205 213 L 209 211 L 223 197 L 222 196 L 241 179 L 253 165 L 255 165 L 260 160 L 262 156 L 263 157 L 277 142 L 279 142 L 279 140 L 285 134 L 292 135 L 297 143 L 303 148 Z" fill="#d18354" fill-rule="evenodd" clip-rule="evenodd"/>
  <path d="M 292 136 L 285 135 L 279 143 L 262 157 L 186 235 L 185 233 L 184 237 L 157 262 L 155 267 L 138 280 L 136 285 L 83 336 L 79 343 L 74 345 L 54 367 L 48 370 L 21 399 L 21 405 L 39 421 L 47 423 L 53 430 L 89 446 L 121 454 L 163 456 L 197 451 L 201 448 L 211 447 L 231 440 L 236 435 L 245 432 L 268 417 L 290 397 L 317 361 L 327 341 L 335 318 L 342 279 L 341 244 L 330 197 L 321 182 L 317 170 L 312 166 L 310 159 Z" fill="#ec6b21" fill-rule="evenodd" clip-rule="evenodd"/>
  <path d="M 238 154 L 230 164 L 95 299 L 236 158 Z" fill="#5f4739" fill-rule="evenodd" clip-rule="evenodd"/>
  <path d="M 326 55 L 324 57 L 321 51 L 319 53 L 316 47 L 293 31 L 251 13 L 222 7 L 172 7 L 156 10 L 237 10 L 238 14 L 140 14 L 98 33 L 95 47 L 81 45 L 65 58 L 64 70 L 53 71 L 30 103 L 32 118 L 21 121 L 16 134 L 16 150 L 10 154 L 6 181 L 6 213 L 13 251 L 30 291 L 50 320 L 60 330 L 64 329 L 75 318 L 73 311 L 78 310 L 80 306 L 84 309 L 118 275 L 116 274 L 120 273 L 186 207 L 182 211 L 181 207 L 187 203 L 188 205 L 196 194 L 209 184 L 205 188 L 204 185 L 202 191 L 201 183 L 213 177 L 211 182 L 218 172 L 229 164 L 229 159 L 232 156 L 232 160 L 242 147 L 244 149 L 259 134 L 257 130 L 260 129 L 261 132 L 331 62 Z M 110 281 L 111 282 L 107 286 L 106 284 Z M 123 260 L 125 262 L 124 265 L 121 264 L 121 262 Z M 118 260 L 120 257 L 122 258 L 121 261 Z M 134 241 L 137 243 L 137 246 L 135 249 L 133 248 L 133 242 Z M 150 241 L 150 238 L 152 237 L 154 239 L 151 242 Z M 226 164 L 226 162 L 228 161 L 229 163 L 227 165 Z M 234 156 L 234 154 L 236 153 L 237 155 L 235 157 Z M 238 147 L 240 145 L 242 146 L 241 148 Z M 254 134 L 255 132 L 258 133 L 256 135 Z M 249 129 L 250 132 L 253 135 L 254 134 L 255 135 L 255 137 L 247 145 L 246 142 L 251 137 L 251 136 L 249 137 L 248 139 L 246 137 L 247 135 L 249 135 L 246 132 Z M 270 113 L 273 112 L 274 115 L 272 116 Z M 273 110 L 276 109 L 277 112 L 274 113 Z M 282 93 L 285 95 L 285 98 L 283 101 L 281 100 L 281 94 Z M 46 93 L 49 92 L 50 95 L 48 96 Z M 49 90 L 52 89 L 53 92 L 50 93 Z M 325 58 L 327 56 L 329 58 L 327 60 Z M 313 53 L 317 52 L 318 56 L 317 57 L 314 56 Z M 310 52 L 312 49 L 314 50 L 313 53 Z M 124 24 L 126 26 L 125 29 L 122 28 L 122 26 Z M 125 22 L 127 21 L 129 24 L 127 25 Z" fill="#363636" fill-rule="evenodd" clip-rule="evenodd"/>
  <path d="M 83 307 L 80 307 L 80 309 L 78 311 L 74 311 L 74 316 L 76 317 L 78 315 L 77 312 L 80 310 L 83 310 Z M 210 179 L 208 179 L 208 181 L 206 183 L 202 183 L 202 189 L 203 187 L 202 186 L 204 184 L 207 185 L 208 184 L 207 183 L 210 182 L 209 180 Z" fill="#363634" fill-rule="evenodd" clip-rule="evenodd"/>
  <path d="M 134 242 L 134 248 L 135 248 L 136 243 Z M 15 137 L 11 150 L 15 150 Z M 260 130 L 258 130 L 258 132 L 255 133 L 253 136 L 248 130 L 247 132 L 250 135 L 247 136 L 248 138 L 251 135 L 252 137 L 247 142 L 247 144 L 254 137 L 255 134 L 260 132 Z M 31 105 L 28 107 L 23 118 L 31 118 Z M 282 94 L 282 100 L 283 100 L 284 95 Z M 63 60 L 54 70 L 63 70 Z M 312 50 L 311 52 L 313 52 L 314 55 L 317 56 L 317 53 L 314 53 L 313 50 Z M 95 35 L 83 43 L 82 46 L 95 46 Z M 146 14 L 237 14 L 237 11 L 151 11 L 147 12 Z" fill="#343434" fill-rule="evenodd" clip-rule="evenodd"/>
</svg>