<svg xmlns="http://www.w3.org/2000/svg" width="500" height="500" viewBox="0 0 500 500" fill="none">
  <path d="M 204 149 L 199 151 L 118 232 L 118 291 L 143 317 L 146 318 L 146 253 L 200 198 L 201 334 L 233 334 L 233 149 Z M 296 148 L 269 149 L 269 334 L 298 333 L 299 218 L 355 319 L 384 291 L 383 212 L 354 183 L 353 251 Z M 268 26 L 268 73 L 445 251 L 268 428 L 268 473 L 270 476 L 493 252 L 493 249 Z M 231 26 L 7 251 L 233 476 L 233 427 L 56 250 L 233 73 L 233 26 Z" fill="currentColor" fill-rule="evenodd" clip-rule="evenodd"/>
</svg>
